<?xml version="1.0" ?><svg viewBox="0 0 322.26 507.19" xmlns="http://www.w3.org/2000/svg"><defs><style>.cls-1{fill:#fefd82;}.cls-2{fill:#8e6649;}.cls-3{fill:#c2946e;}.cls-4{fill:#efd4bf;}.cls-5{fill:#c6c359;}.cls-6{fill:#173156;}</style></defs><title/><g data-name="Capa 2" id="Capa_2"><g data-name="Filled Outline" id="Filled_Outline"><g id="Avocado"><path class="cls-1" d="M305.26,346.06A144.31,144.31,0,0,0,287.67,277a8.94,8.94,0,0,1-.66-1.53L231.58,116.74a8.12,8.12,0,0,1-.37-1.45,71,71,0,0,0-140.17,0,9,9,0,0,1-.36,1.45L35.23,275.52a9.29,9.29,0,0,1-.64,1.49A144.2,144.2,0,0,0,17,346.06c0,79.47,64.66,144.13,144.13,144.13S305.26,425.53,305.26,346.06ZM187.59,460.23a83,83,0,0,1-59.31-24.83A88.64,88.64,0,1,1,239.62,311.91a83.29,83.29,0,0,1-52,148.32Z"/><path class="cls-2" d="M232.77,353.07A71.38,71.38,0,0,0,214,304.78,80.19,80.19,0,0,1,120.5,412a71.59,71.59,0,0,0,112.27-59Z"/><path class="cls-3" d="M219.56,334.14A79.94,79.94,0,0,0,214,304.78,71.61,71.61,0,1,0,120.5,412a80.2,80.2,0,0,0,99.06-77.9Zm-102.8-7.42a3.5,3.5,0,0,1-6.47-2.69,55.71,55.71,0,0,1,31.05-30.14,3.4,3.4,0,0,1,1.24-.23,3.5,3.5,0,0,1,1.25,6.77A48.55,48.55,0,0,0,116.76,326.72Z"/><path class="cls-4" d="M145.86,295.91a3.53,3.53,0,0,0-3.28-2.25,3.4,3.4,0,0,0-1.24.23,55.71,55.71,0,0,0-31,30.14,3.5,3.5,0,0,0,6.47,2.69,48.55,48.55,0,0,1,27.07-26.29A3.51,3.51,0,0,0,145.86,295.91Z"/><path class="cls-5" d="M239.62,311.91A88.62,88.62,0,0,1,128.28,435.4,83.28,83.28,0,1,0,239.62,311.91Z"/><path class="cls-6" d="M302.93,269.49,247.87,111.83a88,88,0,0,0-82.72-73.07C167.73,18.1,179,6.06,179.1,5.93a3.5,3.5,0,0,0-5-4.86c-.6.63-13.35,14.14-16,37.66a88,88,0,0,0-83.71,73.1L19.32,269.49A161.37,161.37,0,0,0,0,346.06c0,88.85,72.28,161.13,161.13,161.13s161.13-72.28,161.13-161.13A161.27,161.27,0,0,0,302.93,269.49ZM17,346.06A144.2,144.2,0,0,1,34.59,277a9.29,9.29,0,0,0,.64-1.49L90.68,116.74a9,9,0,0,0,.36-1.45,71,71,0,0,1,140.17,0,8.12,8.12,0,0,0,.37,1.45L287,275.48a8.94,8.94,0,0,0,.66,1.53,144.31,144.31,0,0,1,17.59,69.05c0,79.47-64.66,144.13-144.13,144.13S17,425.53,17,346.06Z"/><path class="cls-6" d="M249.77,353.07a88.62,88.62,0,1,0-88.64,88.65A88.1,88.1,0,0,0,249.77,353.07Zm-160.29,0a71.75,71.75,0,1,1,31,59A71.73,71.73,0,0,1,89.48,353.07Z"/></g></g></g></svg>