<?xml version="1.0" ?><!DOCTYPE svg  PUBLIC '-//W3C//DTD SVG 1.1//EN'  'http://www.w3.org/Graphics/SVG/1.1/DTD/svg11.dtd'><svg enable-background="new 0 0 512 512" height="512px" id="Layer_5" version="1.1" viewBox="0 0 512 512" width="512px" xml:space="preserve" xmlns="http://www.w3.org/2000/svg" xmlns:xlink="http://www.w3.org/1999/xlink"><g><g><g><path d="M174.6,431.4L72.2,329c18.3-18.3,26.7-10,45.1-28.3c18.3-18.3,10-26.7,28.3-45.1      c18.3-18.3,26.7-10,45.1-28.3c18.3-18.3,10-26.7,28.3-45.1c18.3-18.3,26.7-10,45.1-28.3c18.3-18.3,10-26.7,28.3-45.1      s26.7-10,45.1-28.3L439.8,183c-18.3,18.3-26.7,10-45.1,28.3c-18.3,18.3-10,26.7-28.3,45.1c-18.3,18.3-26.7,10-45.1,28.3      c-18.3,18.3-10,26.7-28.3,45.1c-18.3,18.3-26.7,10-45.1,28.3c-18.3,18.3-10,26.7-28.3,45.1S193,413.1,174.6,431.4z" fill="#E56161"/></g><g><path d="M403.7,146.9c-18.3,18.3-26.7,10-45.1,28.3c-18.3,18.3-10,26.7-28.3,45.1c-18.3,18.3-26.7,10-45.1,28.3      c-18.3,18.3-10,26.7-28.3,45.1c-18.3,18.3-26.7,10-45.1,28.3c-18.3,18.3-10,26.7-28.3,45.1c-18.3,18.3-26.7,10-45.1,28.3      l-31.6-31.6c18.3-18.3,26.7-10,45.1-28.3c18.3-18.3,10-26.7,28.3-45.1c18.3-18.3,26.7-10,45.1-28.3c18.3-18.3,10-26.7,28.3-45.1      c18.3-18.3,26.7-10,45.1-28.3c18.3-18.3,10-26.7,28.3-45.1c18.3-18.3,26.7-10,45.1-28.3L403.7,146.9z" fill="#FFAF78"/></g><g><path d="M106.9,370.9c-1.8,0-3.7-0.7-5.1-2.1c-2.8-2.8-2.8-7.4,0-10.2c10.3-10.3,18.2-13.2,25.1-15.8      c6.4-2.4,11.9-4.4,20-12.5c8.1-8.1,10.1-13.6,12.5-20c2.6-7,5.5-14.8,15.8-25.1c10.3-10.3,18.2-13.2,25.1-15.8      c6.4-2.4,11.9-4.4,20-12.5c8.1-8.1,10.1-13.6,12.5-20c2.6-7,5.5-14.8,15.8-25.1c10.3-10.3,18.2-13.2,25.1-15.8      c6.4-2.4,11.9-4.4,20-12.5c8.1-8.1,10.1-13.6,12.5-20c2.6-7,5.5-14.8,15.8-25.1c10.3-10.3,18.2-13.2,25.1-15.8      c6.4-2.4,11.9-4.4,20-12.5c2.8-2.8,7.4-2.8,10.2,0c2.8,2.8,2.8,7.4,0,10.2c-10.3,10.3-18.2,13.2-25.1,15.8      c-6.4,2.4-11.9,4.4-20,12.5c-8.1,8.1-10.1,13.6-12.5,20c-2.6,7-5.5,14.8-15.8,25.1c-10.3,10.3-18.2,13.2-25.1,15.8      c-6.4,2.4-11.9,4.4-20,12.5c-8.1,8.1-10.1,13.6-12.5,20c-2.6,7-5.5,14.8-15.8,25.1c-10.3,10.3-18.2,13.2-25.1,15.8      c-6.4,2.4-11.9,4.4-20,12.5c-8.1,8.1-10.1,13.6-12.5,20c-2.6,7-5.5,14.8-15.8,25.1c-10.3,10.3-18.2,13.2-25.1,15.8      c-6.4,2.4-11.9,4.4-20,12.5C110.6,370.2,108.7,370.9,106.9,370.9z" fill="#3A2F49"/></g><g><path d="M138.5,402.5c-1.8,0-3.7-0.7-5.1-2.1c-2.8-2.8-2.8-7.4,0-10.2c10.3-10.3,18.2-13.2,25.1-15.8      c6.4-2.4,11.9-4.4,20-12.5c8.1-8.1,10.1-13.6,12.5-20c2.6-7,5.5-14.8,15.8-25.1c10.3-10.3,18.2-13.2,25.1-15.8      c6.4-2.4,11.9-4.4,20-12.5c8.1-8.1,10.1-13.6,12.5-20c2.6-7,5.5-14.8,15.8-25.1c10.3-10.3,18.2-13.2,25.1-15.8      c6.4-2.4,11.9-4.4,20-12.5c8.1-8.1,10.1-13.6,12.5-20c2.6-7,5.5-14.8,15.8-25.1c10.3-10.3,18.2-13.2,25.1-15.8      c6.4-2.4,11.9-4.4,20-12.5c2.8-2.8,7.4-2.8,10.2,0c2.8,2.8,2.8,7.4,0,10.2c-10.3,10.3-18.2,13.2-25.1,15.8      c-6.4,2.4-11.9,4.4-20,12.5c-8.1,8.1-10.1,13.6-12.5,20c-2.6,7-5.5,14.8-15.8,25.1c-10.3,10.3-18.2,13.2-25.1,15.8      c-6.4,2.4-11.9,4.4-20,12.5c-8.1,8.1-10.1,13.6-12.5,20c-2.6,7-5.5,14.8-15.8,25.1c-10.3,10.3-18.2,13.2-25.1,15.8      c-6.4,2.4-11.9,4.4-20,12.5s-10.1,13.6-12.5,20c-2.6,7-5.5,14.8-15.8,25.1c-10.3,10.3-18.2,13.2-25.1,15.8      c-6.4,2.4-11.9,4.4-20,12.5C142.2,401.8,140.3,402.5,138.5,402.5z" fill="#3A2F49"/></g><g><path d="M174.6,438.6c-1.9,0-3.7-0.8-5.1-2.1L67.1,334.1c-1.3-1.3-2.1-3.2-2.1-5.1c0-1.9,0.8-3.7,2.1-5.1      c10.3-10.3,18.2-13.2,25.1-15.8c6.4-2.4,11.9-4.4,20-12.5c8.1-8.1,10.1-13.6,12.5-20c2.6-7,5.5-14.8,15.8-25.1      c10.3-10.3,18.2-13.2,25.1-15.8c6.4-2.4,11.9-4.4,20-12.5c8.1-8.1,10.1-13.6,12.5-20c2.6-7,5.5-14.8,15.8-25.1      c10.3-10.3,18.2-13.2,25.1-15.8c6.4-2.4,11.9-4.4,20-12.5c8.1-8.1,10.1-13.6,12.5-20c2.6-7,5.5-14.8,15.8-25.1      c10.3-10.3,18.2-13.2,25.1-15.8c6.4-2.4,11.9-4.4,20-12.5c2.8-2.8,7.4-2.8,10.2,0l102.5,102.5c2.8,2.8,2.8,7.4,0,10.2      c-10.3,10.3-18.2,13.2-25.1,15.8c-6.4,2.4-11.9,4.4-20,12.5c-8.1,8.1-10.1,13.6-12.5,20c-2.6,7-5.5,14.8-15.8,25.1      c-10.3,10.3-18.2,13.2-25.1,15.8c-6.4,2.4-11.9,4.4-20,12.5c-8.1,8.1-10.1,13.6-12.5,20c-2.6,7-5.5,14.8-15.8,25.1      c-10.3,10.3-18.2,13.2-25.1,15.8c-6.4,2.4-11.9,4.4-20,12.5c-8.1,8.1-10.1,13.6-12.5,20c-2.6,7-5.5,14.8-15.8,25.1      c-10.3,10.3-18.2,13.2-25.1,15.8c-6.4,2.4-11.9,4.4-20,12.5C178.4,437.9,176.5,438.6,174.6,438.6z M82.6,329.3l92.2,92.2      c7.8-6.5,14.1-8.8,19.8-10.9c6.4-2.4,11.9-4.4,20-12.5c8.1-8.1,10.1-13.6,12.5-20c2.6-7,5.5-14.8,15.8-25.1      c10.3-10.3,18.2-13.2,25.1-15.8c6.4-2.4,11.9-4.4,20-12.5c8.1-8.1,10.1-13.6,12.5-20c2.6-7,5.5-14.8,15.8-25.1      c10.3-10.3,18.2-13.2,25.1-15.8c6.4-2.4,11.9-4.4,20-12.5c8.1-8.1,10.1-13.6,12.5-20c2.6-7,5.5-14.8,15.8-25.1      c10.3-10.3,18.2-13.2,25.1-15.8c4.9-1.8,9.2-3.4,14.6-7.7l-92.2-92.2c-7.8,6.5-14.1,8.8-19.8,10.9c-6.4,2.4-11.9,4.4-20,12.5      c-8.1,8.1-10.1,13.6-12.5,20c-2.6,7-5.5,14.8-15.8,25.1c-10.3,10.3-18.2,13.2-25.1,15.8c-6.4,2.4-11.9,4.4-20,12.5      c-8.1,8.1-10.1,13.6-12.5,20c-2.6,7-5.5,14.8-15.8,25.1c-10.3,10.3-18.2,13.2-25.1,15.8c-6.4,2.4-11.9,4.4-20,12.5      s-10.1,13.6-12.5,20c-2.6,7-5.5,14.8-15.8,25.1c-10.3,10.3-18.2,13.2-25.1,15.8C92.4,323.4,88,325,82.6,329.3z" fill="#3A2F49"/></g></g></g></svg>