<?xml version="1.0" ?><!DOCTYPE svg  PUBLIC '-//W3C//DTD SVG 1.1//EN'  'http://www.w3.org/Graphics/SVG/1.1/DTD/svg11.dtd'><svg enable-background="new 0 0 512 512" height="512px" id="Слой_1" version="1.1" viewBox="0 0 512 512" width="512px" xml:space="preserve" xmlns="http://www.w3.org/2000/svg" xmlns:xlink="http://www.w3.org/1999/xlink"><g id="_x31_3._bacon_x2C__fried_x2C__egg_x2C__plate_x2C__food_x2C__restaurant_x2C__breakfast"><g><g><path d="M507.802,256.004c0,139.059-112.739,251.799-251.802,251.799S4.198,395.063,4.198,256.004     C4.198,116.938,116.938,4.198,256,4.198S507.802,116.938,507.802,256.004z" fill="#E6E9ED"/></g><g><path d="M20.186,256.004c0-136.389,108.454-247.372,243.808-251.603c-2.661-0.078-5.315-0.203-7.993-0.203     C116.938,4.198,4.198,116.938,4.198,256.004c0,139.059,112.74,251.799,251.802,251.799c2.678,0,5.332-0.125,7.993-0.203     C128.639,503.368,20.186,392.377,20.186,256.004z" fill="#FFFFFF"/></g><g opacity="0.2"><path d="M491.814,256.004c0,136.373-108.454,247.364-243.808,251.596c2.662,0.078,5.316,0.203,7.994,0.203     c139.063,0,251.802-112.74,251.802-251.799C507.802,116.938,395.063,4.198,256,4.198c-2.678,0-5.332,0.125-7.994,0.203     C383.36,8.632,491.814,119.615,491.814,256.004z"/></g><g><path d="M467.833,256.004c0,116.982-94.862,211.83-211.833,211.83S44.167,372.986,44.167,256.004     S139.029,44.167,256,44.167S467.833,139.021,467.833,256.004z" fill="#CCD1D9"/></g><g opacity="0.1"><path d="M60.154,256.004c0-114.305,90.578-207.419,203.839-211.634c-2.653-0.102-5.315-0.203-7.993-0.203     c-116.971,0-211.833,94.854-211.833,211.837S139.029,467.834,256,467.834c2.678,0,5.34-0.109,7.993-0.203     C150.731,463.415,60.154,370.301,60.154,256.004z"/></g><g opacity="0.5"><path d="M451.846,256.004c0,114.297-90.577,207.411-203.839,211.627c2.654,0.094,5.316,0.203,7.994,0.203     c116.971,0,211.833-94.863,211.833-211.83c0-116.99-94.862-211.837-211.833-211.837c-2.678,0-5.34,0.101-7.994,0.203     C361.269,48.585,451.846,141.699,451.846,256.004z" fill="#FFFFFF"/></g></g><g><path d="M233.537,180.22l24.781,2.799l6.315,47.482l-24.781-2.799c-4.395-0.48-11.272,0.48-15.348,2.08    l-15.827,6.233c-4.079,1.679-10.952,2.557-15.347,2.077l-16.87-1.917c-4.395-0.48-11.269,0.398-15.348,2.077l-15.827,6.237    c-4.075,1.596-10.952,2.557-15.347,2.077l-16.866-1.917c-4.399-0.479-11.272,0.398-15.348,1.999l-23.263,9.191l-6.315-47.482    l23.181-9.192c4.079-1.679,11.03-2.561,15.429-2.081l16.866,1.92c4.317,0.48,11.272-0.48,15.347-2.08l15.75-6.233    c4.075-1.601,11.03-2.561,15.425-2.081l16.87,1.92c4.317,0.48,11.269-0.402,15.347-1.999l15.746-6.315    C222.187,180.618,229.142,179.74,233.537,180.22z" fill="#965353"/></g><g opacity="0.2"><g><path d="M242.331,183.019l6.073,45.647l16.229,1.835l-6.315-47.482l-24.781-2.799c-2.85-0.312-6.733-0.008-10.25,0.648     L242.331,183.019z"/></g></g><g opacity="0.2"><polygon fill="#FFFFFF" points="83.253,202.362 68.147,208.358 74.463,255.84 89.654,249.837   "/></g><g><path d="M243.209,110.037c4.079,1.756,10.953,2.794,15.348,2.396l16.865-1.601    c4.403-0.398,11.272,0.722,15.348,2.4l15.667,6.554c3.997,1.76,10.953,2.798,15.27,2.396l16.947-1.597    c4.396-0.402,11.272,0.718,15.348,2.396l22.943,9.672l-7.275,47.404l-23.021-9.672c-4.075-1.678-10.952-2.799-15.348-2.396    l-16.869,1.597c-4.395,0.402-11.265-0.641-15.348-2.396l-15.667-6.558c-3.997-1.679-10.952-2.795-15.27-2.396l-16.943,1.6    c-4.396,0.398-11.269-0.722-15.348-2.4l-15.589-6.553c-4.075-1.679-10.949-2.799-15.348-2.4l-24.859,2.318l7.354-47.4    l24.859-2.318c4.317-0.402,11.272,0.718,15.27,2.396L243.209,110.037z" fill="#965353"/></g><g opacity="0.2"><polygon points="362.058,126.379 354.649,173.749 369.669,180.06 376.944,132.656   "/></g><g opacity="0.2"><g><path d="M203.4,103.401l17.791-1.659c-3.15-0.585-6.448-0.89-8.919-0.659l-24.859,2.318l-7.354,47.4l16.222-1.515     L203.4,103.401z" fill="#FFFFFF"/></g></g><g><path d="M351.925,275.984c19.906,0,35.972,16.065,35.972,35.972s-16.065,35.972-35.972,35.972    c-19.828,0-35.972-16.065-35.972-35.972S332.097,275.984,351.925,275.984z" fill="#FFCE54"/></g><g><path d="M232.019,315.953c19.906,0,35.972,16.065,35.972,35.972s-16.065,35.972-35.972,35.972    s-35.972-16.065-35.972-35.972S212.112,315.953,232.019,315.953z" fill="#FFCE54"/></g><g opacity="0.5"><path d="M212.034,351.925c0-17.15,11.948-31.382,27.979-35.02c-2.576-0.577-5.234-0.952-7.994-0.952    c-19.906,0-35.972,16.065-35.972,35.972s16.065,35.972,35.972,35.972c2.76,0,5.418-0.375,7.994-0.952    C223.982,383.307,212.034,369.075,212.034,351.925z" fill="#FFFFFF"/></g><g opacity="0.2"><path d="M251.999,351.925c0,17.15-11.943,31.382-27.978,35.02c2.576,0.577,5.23,0.952,7.993,0.952    c19.906,0,35.976-16.065,35.976-35.972s-16.069-35.972-35.976-35.972c-2.763,0-5.417,0.375-7.993,0.952    C240.056,320.543,251.999,334.774,251.999,351.925z"/></g><g opacity="0.5"><path d="M331.94,311.956c0-17.15,11.943-31.382,27.978-35.02c-2.575-0.577-5.229-0.952-7.993-0.952    c-19.906,0-35.972,16.065-35.972,35.972s16.065,35.972,35.972,35.972c2.764,0,5.418-0.375,7.993-0.952    C343.884,343.338,331.94,329.106,331.94,311.956z" fill="#FFFFFF"/></g><g opacity="0.2"><path d="M371.909,311.956c0,17.15-11.944,31.382-27.979,35.02c2.576,0.577,5.23,0.952,7.994,0.952    c19.906,0,35.972-16.065,35.972-35.972s-16.065-35.972-35.972-35.972c-2.764,0-5.418,0.375-7.994,0.952    C359.965,280.574,371.909,294.806,371.909,311.956z"/></g><g><path d="M381.901,212.035c21.982-6.073,64.59,31.975,61.951,55.956c-2.639,23.981-36.448,103.919-63.95,127.9    c-22.7,19.828-73.224,51.318-103.918,47.962c-50.679-5.519-44.364-26.861-79.938-31.975    c-55.956-7.994-73.302-39.329-79.937-55.956c-15.987-39.969,31.975-63.95,53.478-71.943c18.544-6.878,37.092-7.994,50.441-7.994    s43.165-0.156,59.156-12.631c22.061-17.346,12.787-46.842,36.769-46.842S338.653,224.025,381.901,212.035z M387.896,311.956    c0-19.906-16.065-35.972-35.972-35.972c-19.828,0-35.972,16.065-35.972,35.972s16.144,35.972,35.972,35.972    C371.831,347.928,387.896,331.862,387.896,311.956z M267.99,351.925c0-19.906-16.065-35.972-35.972-35.972    s-35.972,16.065-35.972,35.972s16.065,35.972,35.972,35.972S267.99,371.831,267.99,351.925z" fill="#E6E9ED"/></g><g opacity="0.2"><g><path d="M336.671,218.334c-5.823-0.683-11.343-1.823-20.718-1.823c-1.89,0-3.505,0.242-5.012,0.585     C319.685,218.038,325.18,219.642,336.671,218.334z"/></g><g><path d="M381.901,212.035c-0.922,0.254-1.702,0.453-2.584,0.687c22.381,6.44,50.718,35.574,48.548,55.269     c-2.639,23.981-36.448,103.919-63.95,127.9c-19.719,17.221-60.421,43.216-90.89,47.556c1.007,0.133,1.897,0.289,2.959,0.406     c30.694,3.356,81.218-28.134,103.918-47.962c27.502-23.981,61.312-103.919,63.95-127.9     C446.491,244.01,403.884,205.961,381.901,212.035z"/></g></g><g><g><path d="M395.305,212.722c-4.871-1.397-9.478-1.772-13.403-0.687c-13.279,3.681-22.342,5.515-29.243,6.3     C361.417,219.361,370.972,219.295,395.305,212.722z" fill="#FFFFFF"/></g><g><path d="M212.034,411.878c-55.956-7.994-73.302-39.329-79.937-55.956c-15.988-39.969,31.975-63.95,53.477-71.943     c18.544-6.878,37.092-7.994,50.441-7.994s43.169-0.156,59.157-12.631c20.327-15.979,14.113-42.221,31.756-46.256     c-3.107-0.335-6.62-0.585-10.976-0.585c-23.981,0-14.708,29.496-36.769,46.842c-15.991,12.475-45.808,12.631-59.156,12.631     s-31.897,1.116-50.441,7.994c-21.502,7.993-69.465,31.975-53.478,71.943c6.635,16.627,23.981,47.962,79.937,55.956     c35.574,5.113,29.259,26.456,79.938,31.975c4.028,0.438,8.415,0.25,13.028-0.406     C241.679,437.412,246.866,416.882,212.034,411.878z" fill="#FFFFFF"/></g></g><g><g><path d="M256,511.799C114.951,511.799,0.201,397.046,0.201,256C0.201,114.951,114.951,0.201,256,0.201     c141.046,0,255.799,114.75,255.799,255.799C511.799,397.046,397.046,511.799,256,511.799z M256,8.195     C119.361,8.195,8.194,119.361,8.194,256c0,136.643,111.167,247.806,247.806,247.806c136.643,0,247.806-111.163,247.806-247.806     C503.806,119.361,392.643,8.195,256,8.195z" fill="#3A3847"/></g><g><path d="M256,471.83c-119.008,0-215.83-96.822-215.83-215.83S136.992,40.17,256,40.17S471.83,136.992,471.83,256     S375.008,471.83,256,471.83z M256,48.164C141.398,48.164,48.163,141.399,48.163,256c0,114.605,93.235,207.837,207.837,207.837     c114.605,0,207.837-93.231,207.837-207.837C463.837,141.399,370.605,48.164,256,48.164z" fill="#3A3847"/></g><g><path d="M74.463,259.837c-1.593,0-3.095-0.956-3.716-2.529c-0.812-2.053,0.195-4.375,2.248-5.184l23.263-9.191     c4.625-1.823,12.206-2.807,17.248-2.256l16.885,1.92c3.657,0.398,9.934-0.457,13.435-1.827l15.824-6.237     c4.512-1.858,12.104-2.892,17.244-2.331l16.889,1.921c3.837,0.417,9.977-0.406,13.372-1.804l15.886-6.257     c4.715-1.846,12.307-2.857,17.244-2.334l24.793,2.799c2.193,0.25,3.77,2.229,3.528,4.422c-0.25,2.198-2.35,3.739-4.419,3.525     l-24.785-2.798c-3.673-0.422-9.938,0.449-13.438,1.826l-15.823,6.233c-4.512,1.854-12.124,2.885-17.244,2.331l-16.89-1.92     c-3.844-0.426-9.98,0.402-13.372,1.803l-15.886,6.261c-4.727,1.842-12.303,2.861-17.244,2.33l-16.886-1.92     c-3.813-0.421-9.961,0.387-13.435,1.749l-23.255,9.188C75.45,259.747,74.951,259.837,74.463,259.837z" fill="#3A3847"/></g><g><path d="M86.613,230.021c-1.592,0-3.099-0.96-3.72-2.529c-0.808-2.057,0.199-4.375,2.252-5.188l7.912-3.118     c4.742-1.858,12.295-2.877,17.26-2.33l16.877,1.92c3.774,0.391,9.984-0.394,13.537-1.76l15.698-6.292     c4.672-1.827,12.225-2.814,17.271-2.264l16.881,1.924c3.708,0.398,9.906-0.441,13.541-1.842l15.714-6.218     c4.532-1.87,12.131-2.896,17.26-2.334l8.481,0.957c2.194,0.25,3.771,2.229,3.525,4.422c-0.25,2.193-2.252,3.72-4.422,3.524     l-8.474-0.956c-3.763-0.438-10.027,0.417-13.376,1.799l-15.801,6.253c-4.898,1.889-12.346,2.884-17.334,2.338l-16.885-1.924     c-3.72-0.386-10.004,0.414-13.438,1.753l-15.719,6.299c-4.734,1.827-12.334,2.802-17.346,2.264l-16.885-1.921     c-3.614-0.39-9.918,0.453-13.442,1.831l-7.9,3.114C87.597,229.931,87.102,230.021,86.613,230.021z" fill="#3A3847"/></g><g><path d="M68.147,212.354c-1.588,0-3.095-0.956-3.716-2.525c-0.812-2.049,0.191-4.371,2.244-5.187l23.182-9.192     c4.535-1.866,12.17-2.92,17.334-2.338l16.885,1.924c3.638,0.398,9.922-0.445,13.435-1.83l15.738-6.229     c4.73-1.854,12.338-2.877,17.33-2.338l16.889,1.924c3.712,0.402,10-0.402,13.438-1.752l15.715-6.3     c4.656-1.834,12.268-2.845,17.35-2.264l24.797,2.798c2.193,0.25,3.771,2.229,3.524,4.422c-0.25,2.19-2.232,3.735-4.422,3.525     l-24.782-2.799c-3.782-0.426-10.102,0.406-13.521,1.745l-15.718,6.304c-4.684,1.834-12.256,2.822-17.275,2.264l-16.881-1.925     c-3.696-0.398-10.004,0.457-13.513,1.831l-15.737,6.229c-4.746,1.861-12.33,2.861-17.26,2.338l-16.877-1.924     c-3.833-0.394-10.105,0.429-13.455,1.807l-23.231,9.211C69.139,212.265,68.64,212.354,68.147,212.354z" fill="#3A3847"/></g><g><path d="M74.459,259.837c-1.975,0-3.692-1.46-3.958-3.47l-6.315-47.482c-0.292-2.189,1.245-4.196,3.435-4.488     c2.194-0.285,4.2,1.245,4.489,3.435l6.315,47.482c0.292,2.189-1.245,4.196-3.435,4.488     C74.811,259.825,74.635,259.837,74.459,259.837z" fill="#3A3847"/></g><g><path d="M264.626,234.498c-1.971,0-3.688-1.459-3.954-3.47l-6.315-47.482c-0.292-2.19,1.245-4.196,3.436-4.489     c2.186-0.277,4.199,1.245,4.488,3.435l6.319,47.482c0.288,2.19-1.249,4.196-3.435,4.489     C264.985,234.486,264.806,234.498,264.626,234.498z" fill="#3A3847"/></g><g><path d="M369.669,184.057c-0.516,0-1.047-0.102-1.546-0.313l-23.021-9.672c-3.513-1.448-9.797-2.439-13.435-2.1     l-16.861,1.592c-5.074,0.464-12.701-0.722-17.299-2.701l-15.637-6.542c-3.474-1.464-9.773-2.467-13.356-2.104l-16.936,1.596     c-4.945,0.449-12.506-0.734-17.244-2.682l-15.617-6.565c-3.505-1.444-9.797-2.428-13.438-2.104l-24.848,2.319     c-2.139,0.222-4.146-1.409-4.353-3.611c-0.203-2.198,1.413-4.145,3.61-4.352l24.859-2.318c4.926-0.426,12.502,0.737,17.241,2.686     l15.617,6.565c3.509,1.448,9.77,2.447,13.438,2.104l16.929-1.597c4.934-0.468,12.506,0.722,17.189,2.689l15.667,6.554     c3.474,1.495,9.625,2.459,13.435,2.104l16.862-1.593c4.941-0.449,12.497,0.727,17.244,2.678l23.044,9.684     c2.037,0.855,2.998,3.197,2.139,5.234C372.713,183.136,371.229,184.057,369.669,184.057z" fill="#3A3847"/></g><g><path d="M358.162,154.002c-0.531,0-1.062-0.102-1.577-0.324l-7.838-3.361c-3.388-1.401-9.664-2.346-13.411-2.01     l-16.869,1.522c-5.051,0.456-12.584-0.691-17.229-2.604l-15.706-6.651c-3.411-1.405-9.727-2.361-13.419-2.018l-16.874,1.518     c-5.012,0.453-12.576-0.691-17.229-2.604l-15.628-6.655c-3.466-1.425-9.609-2.354-13.427-2.014l-8.458,0.796     c-2.189,0.258-4.145-1.405-4.352-3.603c-0.211-2.198,1.405-4.146,3.603-4.353l8.474-0.8c5.027-0.477,12.603,0.687,17.248,2.6     l15.628,6.655c3.474,1.424,9.641,2.393,13.423,2.014l16.865-1.519c5.004-0.449,12.576,0.687,17.229,2.604l15.706,6.651     c3.481,1.432,9.688,2.377,13.427,2.018l16.87-1.522c5.02-0.444,12.584,0.691,17.229,2.604l7.893,3.384     c2.029,0.871,2.966,3.22,2.1,5.25C361.183,153.097,359.708,154.002,358.162,154.002z" fill="#3A3847"/></g><g><path d="M376.944,136.652c-0.523,0-1.047-0.102-1.554-0.312l-22.943-9.672c-3.505-1.448-9.797-2.436-13.427-2.1     l-16.939,1.593c-5.121,0.495-12.709-0.711-17.252-2.717l-15.605-6.522c-3.567-1.476-9.703-2.467-13.442-2.107l-16.847,1.596     c-5.089,0.507-12.704-0.718-17.306-2.701L226,107.168c-3.478-1.456-9.715-2.467-13.356-2.104l-24.859,2.318     c-2.182,0.234-4.146-1.409-4.353-3.61c-0.203-2.198,1.413-4.146,3.611-4.353l24.859-2.318c4.957-0.464,12.502,0.726,17.186,2.693     l15.664,6.554c3.466,1.491,9.574,2.459,13.446,2.104l16.851-1.597c4.926-0.457,12.514,0.734,17.244,2.682l15.69,6.562     c3.372,1.483,9.524,2.459,13.356,2.104l16.94-1.593c4.941-0.448,12.498,0.73,17.244,2.678l22.974,9.684     c2.03,0.859,2.99,3.205,2.132,5.238C379.98,135.735,378.505,136.652,376.944,136.652z" fill="#3A3847"/></g><g><path d="M180.063,154.799c-0.203,0-0.41-0.016-0.617-0.047c-2.182-0.34-3.677-2.381-3.337-4.563l7.354-47.4     c0.34-2.182,2.405-3.665,4.563-3.337c2.182,0.34,3.677,2.381,3.337,4.563l-7.354,47.4     C183.701,153.39,182.003,154.799,180.063,154.799z" fill="#3A3847"/></g><g><path d="M369.677,184.057c-0.203,0-0.406-0.016-0.617-0.047c-2.178-0.335-3.677-2.373-3.341-4.555l7.275-47.404     c0.335-2.186,2.357-3.665,4.559-3.345c2.179,0.335,3.677,2.373,3.341,4.555l-7.275,47.404     C373.313,182.644,371.612,184.057,369.677,184.057z" fill="#3A3847"/></g><g><path d="M280.715,448.1L280.715,448.1c-1.772,0-3.497-0.094-5.168-0.273c-29-3.162-40.343-11.546-50.351-18.938     c-7.912-5.847-14.747-10.905-29.719-13.052c-42.053-6.012-70.004-25.668-83.08-58.432c-4.696-11.74-4.653-23.161,0.125-33.949     c10.789-24.34,42.529-38.337,55.671-43.224c14.961-5.551,31.913-8.244,51.834-8.244c11.374,0,41.592,0,56.697-11.783     c8.985-7.069,12.35-16.675,15.309-25.145c3.872-11.085,7.885-22.545,23.919-22.545c7.471,0,12.638,0.71,17.197,1.339     c3.849,0.527,7.182,0.987,11.382,0.987c8.501-0.004,19.695-2.053,36.299-6.658c1.905-0.527,3.966-0.793,6.137-0.793     c15.276,0,33.738,12.971,45.253,25.828c11.03,12.303,16.714,25.136,15.604,35.21c-2.81,25.566-37.236,106.003-65.3,130.476     C359.146,419.325,312.097,448.1,280.715,448.1z M315.953,220.509c-9.922,0-12.312,5.581-16.37,17.186     c-3.162,9.036-7.096,20.28-17.932,28.798c-17.283,13.489-48.356,13.489-61.623,13.489c-18.954,0-35,2.537-49.052,7.744     c-9.512,3.536-41.319,16.799-51.143,38.969c-3.875,8.743-3.879,18.072-0.012,27.744c11.936,29.914,37.775,47.907,76.792,53.481     c16.967,2.443,25.289,8.587,33.333,14.535c9.645,7.127,19.613,14.496,46.467,17.424c28.845,3.092,77.947-26.986,100.858-47.002     c26.331-22.951,59.969-101.373,62.607-125.323c0.851-7.705-4.239-18.544-13.606-29.001     c-13.841-15.444-32.943-25.491-43.31-22.666c-26.44,7.33-39.071,7.506-50.905,5.882     C327.546,221.148,322.877,220.509,315.953,220.509z" fill="#3A3847"/></g><g><path d="M232.019,391.894c-22.037,0-39.968-17.932-39.968-39.969s17.931-39.969,39.968-39.969     c22.038,0,39.969,17.932,39.969,39.969S254.056,391.894,232.019,391.894z M232.019,319.95c-17.63,0-31.975,14.34-31.975,31.975     s14.344,31.975,31.975,31.975c17.631,0,31.975-14.34,31.975-31.975S249.649,319.95,232.019,319.95z" fill="#3A3847"/></g><g><path d="M351.925,351.925c-22.037,0-39.969-17.931-39.969-39.969c0-22.037,17.932-39.969,39.969-39.969     s39.969,17.932,39.969,39.969C391.894,333.994,373.962,351.925,351.925,351.925z M351.925,279.981     c-17.635,0-31.975,14.34-31.975,31.975s14.34,31.976,31.975,31.976s31.975-14.341,31.975-31.976S369.56,279.981,351.925,279.981z     " fill="#3A3847"/></g></g></g></svg>