<?xml version="1.0" ?><svg viewBox="0 0 512 512" xmlns="http://www.w3.org/2000/svg"><g id="Meat"><path d="M435.6326,335.0967c-33.5456,0-47.6136-16.2319-82.2414-16.2319-85.4877,0-99.5556,61.6811-183.9615,61.6811C61.2172,380.5459,32,298.3044,32,259.3477v42c0,38.9567,29.2172,121.1982,137.43,121.1982,84.4059,0,98.4738-61.6811,183.9615-61.6811,34.6278,0,48.6958,16.2319,82.2414,16.2319S480,350.0435,480,325.1547v-42C480,308.0435,469.1787,335.0967,435.6326,335.0967Z" style="fill:#a81822"/><path d="M169.43,380.5459c84.4059,0,98.4738-61.6811,183.9615-61.6811,34.6278,0,48.6958,16.2319,82.2414,16.2319S480,308.0435,480,283.1547C480,199.831,379.3622,89.4541,211.6326,89.4541S32,220.3914,32,259.3477,61.2172,380.5459,169.43,380.5459Z" style="fill:#d6384f"/><path d="M444.6142,288.9333a10.49,10.49,0,0,1-9.0986-5.2534L382.291,191.4973a10.4987,10.4987,0,1,1,18.1835-10.5L453.6992,273.18a10.5061,10.5061,0,0,1-9.085,15.7534Z" style="fill:#a81822"/><path d="M366.3359,294.98a10.49,10.49,0,0,1-9.0987-5.2534L268.8349,136.6081a10.4987,10.4987,0,1,1,18.1836-10.5l88.4023,153.1182a10.5061,10.5061,0,0,1-9.0849,15.7534Z" style="fill:#a81822"/><path d="M290.5732,305.3738a10.49,10.49,0,0,1-9.0987-5.2535L183.4882,130.4045a10.4987,10.4987,0,1,1,18.1836-10.5L299.6581,289.62a10.5063,10.5063,0,0,1-9.0849,15.7535Z" style="fill:#a81822"/><path d="M228.3046,339.1433a10.49,10.49,0,0,1-9.0986-5.2534L113.4472,150.7141a10.4987,10.4987,0,1,1,18.1836-10.5L237.39,323.39a10.5061,10.5061,0,0,1-9.085,15.7534Z" style="fill:#a81822"/><path d="M155.98,355.4983a10.49,10.49,0,0,1-9.0986-5.2534L66.2451,210.5832a10.4987,10.4987,0,1,1,18.1835-10.5l80.6368,139.6617a10.5061,10.5061,0,0,1-9.085,15.7534Z" style="fill:#a81822"/></g></svg>